# Blender v2.79 (sub 0) OBJ File: 'Sillas-EstructuraBase.blend'
# www.blender.org
mtllib Sillas-BaseMetalica-obj.mtl
o Cylinder.004_Cylinder.022
v -0.252547 0.488951 -2.585018
v -0.518571 0.488951 -2.407267
v -0.696322 0.488951 -2.141243
v -0.758740 0.488951 -1.827447
v -0.696322 0.488951 -1.513650
v -0.518571 0.488951 -1.247627
v -0.252547 0.488951 -1.069875
v 0.061249 0.488951 -1.007457
v 0.375045 0.488951 -1.069875
v 0.641069 0.488951 -1.247627
v 0.818820 0.488951 -1.513651
v 0.881238 0.488951 -1.827447
v 0.818820 0.488951 -2.141243
v 0.641069 0.488951 -2.407267
v 0.375045 0.488951 -2.585018
v 0.061249 0.488951 -2.647436
v -1.346959 0.202967 -5.227165
v -2.540782 0.202967 -4.429480
v -3.338469 0.202967 -3.235657
v -3.618579 0.202967 -1.827447
v -3.338469 0.202967 -0.419237
v -2.540782 0.202967 0.774585
v -1.346960 0.202967 1.572272
v 0.061249 0.202967 1.852381
v 1.469458 0.202967 1.572272
v 2.663280 0.202967 0.774584
v 3.460967 0.202967 -0.419237
v 3.741077 0.202967 -1.827447
v 3.460967 0.202967 -3.235656
v 2.663280 0.202967 -4.429479
v 1.469458 0.202967 -5.227165
v 0.061249 0.202967 -5.507276
v -1.346959 0.067660 -5.227165
v -2.540782 0.067660 -4.429480
v -3.338469 0.067660 -3.235657
v -3.618579 0.067660 -1.827447
v -3.338469 0.067660 -0.419237
v -2.540782 0.067660 0.774585
v -1.346960 0.067660 1.572272
v 0.061249 0.067660 1.852381
v 1.469458 0.067660 1.572272
v 2.663280 0.067660 0.774584
v 3.460967 0.067660 -0.419237
v 3.741077 0.067660 -1.827447
v 3.460967 0.067660 -3.235656
v 2.663280 0.067660 -4.429479
v 1.469458 0.067660 -5.227165
v 0.061249 0.067660 -5.507276
vt 0.841267 0.088405
vt 1.000000 0.203911
vt 0.841267 0.203911
vt 0.892444 0.841760
vt 0.766998 0.987916
vt 0.766998 0.841760
vt 0.841267 0.328935
vt 1.000000 0.444441
vt 0.841267 0.444441
vt 0.631217 0.841760
vt 0.505771 0.987916
vt 0.505771 0.841760
vt 0.096012 0.691086
vt 0.221458 0.544930
vt 0.221458 0.691086
vt 0.065405 0.285715
vt 0.088051 0.103138
vt 0.153456 0.197929
vt 0.357239 0.691086
vt 0.482685 0.544930
vt 0.482685 0.691086
vt 0.268064 0.130886
vt 0.326376 0.000000
vt 0.391780 0.094792
vt 1.000000 0.088405
vt 0.892444 0.987917
vt 1.000000 0.328935
vt 0.631217 0.987916
vt 0.096012 0.544930
vt 0.000000 0.190923
vt 0.357239 0.544930
vt 0.202659 0.036095
vt 1.000000 0.532846
vt 0.841267 0.532846
vt 0.000000 0.691086
vt 0.841267 0.000000
vt 0.988456 0.841760
vt 0.000000 0.544930
vt 1.000000 0.000000
vt 0.988456 0.987916
vt 0.304477 1.000000
vt 0.332430 1.000000
vt 0.452801 0.489223
vt 0.480370 0.481180
vt 0.505771 0.207055
vt 0.505771 0.226755
vt 0.505771 0.095140
vt 0.505771 0.481258
vt 0.505771 0.252493
vt 0.742189 0.532846
vt 0.714235 0.532846
vt 0.505771 0.280353
vt 0.505771 0.306091
vt 0.683978 0.532846
vt 0.396926 0.544930
vt 0.407642 0.523724
vt 0.246267 1.000000
vt 0.274220 1.000000
vt 0.656025 0.532846
vt 0.427263 0.504163
vt 0.224872 1.000000
vt 0.017315 0.380877
vn -0.9808 0.0000 0.1951
vn 0.9808 0.0000 -0.1951
vn -0.5556 0.0000 0.8315
vn 0.5556 0.0000 -0.8315
vn -0.1951 0.0000 -0.9808
vn 0.1951 0.0000 0.9808
vn -0.8315 0.0000 -0.5556
vn 0.8315 0.0000 0.5556
vn -0.8315 0.0000 0.5556
vn 0.8315 0.0000 -0.5556
vn -0.1951 0.0000 0.9808
vn 0.1951 0.0000 -0.9808
vn -0.5556 0.0000 -0.8315
vn 0.5556 0.0000 0.8315
vn -0.9808 0.0000 -0.1951
vn 0.9808 0.0000 0.1951
vn -0.0843 0.9948 -0.0564
vn 0.0843 0.9948 0.0564
vn -0.0995 0.9948 -0.0198
vn 0.0995 0.9948 0.0198
vn -0.0995 0.9948 0.0198
vn 0.0995 0.9948 -0.0198
vn -0.0843 0.9948 0.0564
vn -0.0564 0.9948 0.0843
vn 0.0843 0.9948 -0.0564
vn -0.0198 0.9948 0.0995
vn -0.0198 0.9948 -0.0995
vn 0.0564 0.9948 -0.0843
vn 0.0198 0.9948 0.0995
vn -0.0564 0.9948 -0.0843
vn 0.0198 0.9948 -0.0995
vn 0.0564 0.9948 0.0843
usemtl Material.024
s off
f 20/1/1 37/2/1 21/3/1
f 28/4/2 45/5/2 29/6/2
f 22/7/3 39/8/3 23/9/3
f 30/10/4 47/11/4 31/12/4
f 32/13/5 33/14/5 17/15/5
f 24/16/6 41/17/6 25/18/6
f 18/19/7 35/20/7 19/21/7
f 26/22/8 43/23/8 27/24/8
f 20/1/1 36/25/1 37/2/1
f 28/4/2 44/26/2 45/5/2
f 22/7/3 38/27/3 39/8/3
f 30/10/4 46/28/4 47/11/4
f 32/13/5 48/29/5 33/14/5
f 24/16/6 40/30/6 41/17/6
f 18/19/7 34/31/7 35/20/7
f 26/22/8 42/32/8 43/23/8
usemtl Material.025
f 21/3/9 38/27/9 22/7/9
f 29/6/10 46/28/10 30/10/10
f 23/9/11 40/33/11 24/34/11
f 31/35/12 48/29/12 32/13/12
f 17/15/13 34/31/13 18/19/13
f 25/18/14 42/32/14 26/22/14
f 19/36/15 36/25/15 20/1/15
f 27/37/16 44/26/16 28/4/16
f 21/3/9 37/2/9 38/27/9
f 29/6/10 45/5/10 46/28/10
f 23/9/11 39/8/11 40/33/11
f 31/35/12 47/38/12 48/29/12
f 17/15/13 33/14/13 34/31/13
f 25/18/14 41/17/14 42/32/14
f 19/36/15 35/39/15 36/25/15
f 27/37/16 43/40/16 44/26/16
usemtl Material.001
f 2/41/17 19/21/17 3/42/17
f 10/43/18 27/24/18 11/44/18
f 3/45/19 20/1/19 4/46/19
f 11/44/20 28/47/20 12/48/20
f 5/49/21 20/1/21 21/3/21
f 12/50/22 29/6/22 13/51/22
f 5/49/23 22/7/23 6/52/23
f 6/52/24 23/9/24 7/53/24
f 13/51/25 30/10/25 14/54/25
f 7/55/26 24/16/26 8/56/26
f 16/57/27 17/15/27 1/58/27
f 14/54/28 31/12/28 15/59/28
f 9/60/29 24/16/29 25/18/29
f 2/41/30 17/15/30 18/19/30
f 15/61/31 32/13/31 16/57/31
f 9/60/32 26/22/32 10/43/32
f 2/41/17 18/19/17 19/21/17
f 10/43/18 26/22/18 27/24/18
f 3/45/19 19/36/19 20/1/19
f 11/44/20 27/24/20 28/47/20
f 5/49/21 4/46/21 20/1/21
f 12/50/22 28/4/22 29/6/22
f 5/49/23 21/3/23 22/7/23
f 6/52/24 22/7/24 23/9/24
f 13/51/25 29/6/25 30/10/25
f 7/55/26 23/62/26 24/16/26
f 16/57/27 32/13/27 17/15/27
f 14/54/28 30/10/28 31/12/28
f 9/60/29 8/56/29 24/16/29
f 2/41/30 1/58/30 17/15/30
f 15/61/31 31/35/31 32/13/31
f 9/60/32 25/18/32 26/22/32
