# Blender v2.79 (sub 0) OBJ File: 'EstructuraMetalicaJuegoTazas.blend'
# www.blender.org
mtllib Tazas-BaseMetalica-obj.mtl
o SuperficieRide_Ride_Surface.001
v 4.634122 0.258824 0.458056
v 4.569131 0.258824 0.903332
v 4.463320 0.258824 1.333776
v 4.318740 0.258824 1.747338
v 4.137444 0.258824 2.141964
v 3.921483 0.258824 2.515604
v 3.672909 0.258824 2.866206
v 3.393773 0.258824 3.191718
v 3.086128 0.258824 3.490088
v 2.752025 0.258824 3.759264
v 2.393516 0.258823 3.997195
v 2.012653 0.258823 4.201829
v 1.611487 0.258823 4.371114
v 1.192070 0.258823 4.502999
v 0.756453 0.258823 4.595432
v 0.458056 0.258823 4.634122
v 0.000000 0.258823 4.656242
v -0.458056 0.258823 4.634122
v -0.903332 0.258823 4.569131
v -1.333776 0.258823 4.463320
v -1.747338 0.258823 4.318740
v -2.141964 0.258823 4.137444
v -2.515604 0.258824 3.921483
v -2.866206 0.258824 3.672909
v -3.191718 0.258824 3.393773
v -3.490088 0.258824 3.086128
v -3.759264 0.258824 2.752025
v -3.997195 0.258824 2.393516
v -4.201829 0.258824 2.012653
v -4.371114 0.258824 1.611487
v -4.502999 0.258824 1.192070
v -4.595432 0.258824 0.756453
v -4.634122 0.258824 0.458056
v -4.656242 0.258824 0.000000
v -4.634122 0.258824 -0.458056
v -4.569131 0.258824 -0.903332
v -4.463320 0.258824 -1.333776
v -4.318740 0.258824 -1.747338
v -4.137444 0.258824 -2.141964
v -3.921483 0.258825 -2.515604
v -3.672909 0.258825 -2.866206
v -3.393773 0.258825 -3.191718
v -3.086128 0.258825 -3.490088
v -2.752025 0.258825 -3.759264
v -2.393516 0.258825 -3.997195
v -2.012653 0.258825 -4.201829
v -1.611487 0.258825 -4.371114
v -1.192070 0.258825 -4.502999
v -0.756453 0.258825 -4.595432
v -0.458056 0.258825 -4.634122
v 0.000000 0.258825 -4.656242
v 0.458056 0.258825 -4.634122
v 0.903332 0.258825 -4.569131
v 1.333776 0.258825 -4.463320
v 1.747338 0.258825 -4.318740
v 2.141964 0.258825 -4.137444
v 2.515604 0.258825 -3.921483
v 2.866206 0.258825 -3.672909
v 3.191718 0.258825 -3.393773
v 3.490088 0.258825 -3.086128
v 3.759264 0.258825 -2.752025
v 3.997195 0.258825 -2.393516
v 4.201829 0.258824 -2.012653
v 4.371114 0.258824 -1.611487
v 4.502999 0.258824 -1.192070
v 4.595432 0.258824 -0.756453
v 4.634122 0.258824 -0.458056
v 4.656242 0.258824 0.000000
v 4.634122 0.305387 -0.458056
v 4.595432 0.305387 -0.756453
v 4.502999 0.305387 -1.192070
v 4.371114 0.305387 -1.611487
v 4.201829 0.305387 -2.012653
v 3.997195 0.305387 -2.393516
v 3.759264 0.305387 -2.752025
v 3.490088 0.305387 -3.086128
v 3.191718 0.305387 -3.393773
v 2.866206 0.305387 -3.672909
v 2.515604 0.305387 -3.921483
v 2.141964 0.305387 -4.137444
v 1.747338 0.305387 -4.318740
v 1.333776 0.305387 -4.463320
v 0.903332 0.305387 -4.569131
v 0.458056 0.305387 -4.634122
v 0.000000 0.305387 -4.656242
v -0.458056 0.305387 -4.634122
v -0.756453 0.305387 -4.595432
v -1.192070 0.305387 -4.502999
v -1.611487 0.305387 -4.371114
v -2.012653 0.305387 -4.201829
v -2.393516 0.305387 -3.997195
v -2.752025 0.305387 -3.759264
v -3.086128 0.305387 -3.490088
v -3.393773 0.305387 -3.191718
v -3.672909 0.305387 -2.866206
v -3.921483 0.305387 -2.515604
v -4.137444 0.305387 -2.141964
v -4.318740 0.305387 -1.747338
v -4.463320 0.305387 -1.333776
v -4.569131 0.305387 -0.903332
v -4.634122 0.305387 -0.458056
v -4.656242 0.305387 0.000000
v -4.634122 0.305386 0.458056
v -4.595432 0.305386 0.756453
v -4.502999 0.305386 1.192070
v -4.371114 0.305386 1.611487
v -4.201829 0.305386 2.012653
v -3.997195 0.305386 2.393516
v -3.759264 0.305386 2.752025
v -3.490088 0.305386 3.086128
v -3.191718 0.305386 3.393773
v -2.866206 0.305386 3.672909
v -2.515604 0.305386 3.921483
v -2.141964 0.305386 4.137444
v -1.747338 0.305386 4.318740
v -1.333776 0.305386 4.463320
v -0.903332 0.305386 4.569131
v -0.458056 0.305386 4.634122
v 0.000000 0.305386 4.656242
v 0.458056 0.305386 4.634122
v 0.756453 0.305386 4.595432
v 1.192070 0.305386 4.502999
v 1.611487 0.305386 4.371114
v 2.012653 0.305386 4.201829
v 2.393516 0.305386 3.997195
v 2.752025 0.305386 3.759264
v 3.086128 0.305386 3.490088
v 3.393773 0.305386 3.191718
v 3.672909 0.305386 2.866206
v 3.921483 0.305386 2.515604
v 4.137444 0.305386 2.141964
v 4.318740 0.305386 1.747338
v 4.463320 0.305386 1.333776
v 4.569131 0.305386 0.903332
v 4.634122 0.305386 0.458056
v 4.656242 0.305387 0.000000
v 4.656242 0.305387 0.000000
v 4.634122 0.305386 0.458056
v 4.634122 0.258824 0.458056
v 4.656242 0.258824 0.000000
v 4.569131 0.305386 0.903332
v 4.569131 0.258824 0.903332
v 4.463320 0.305386 1.333776
v 4.463320 0.258824 1.333776
v 4.318740 0.305386 1.747338
v 4.318740 0.258824 1.747338
v 4.137444 0.305386 2.141964
v 4.137444 0.258824 2.141964
v 3.921483 0.305386 2.515604
v 3.921483 0.258824 2.515604
v 3.672909 0.305386 2.866206
v 3.672909 0.258824 2.866206
v 3.393773 0.305386 3.191718
v 3.393773 0.258824 3.191718
v 3.086128 0.305386 3.490088
v 3.086128 0.258824 3.490088
v 2.752025 0.305386 3.759264
v 2.752025 0.258824 3.759264
v 2.393516 0.305386 3.997195
v 2.393516 0.258823 3.997195
v 2.012653 0.305386 4.201829
v 2.012653 0.258823 4.201829
v 1.611487 0.305386 4.371114
v 1.611487 0.258823 4.371114
v 1.192070 0.305386 4.502999
v 1.192070 0.258823 4.502999
v 0.756453 0.305386 4.595432
v 0.756453 0.258823 4.595432
v 0.458056 0.305386 4.634122
v 0.458056 0.258823 4.634122
v 0.000000 0.305386 4.656242
v 0.000000 0.258823 4.656242
v -0.458056 0.305386 4.634122
v -0.458056 0.258823 4.634122
v -0.903332 0.305386 4.569131
v -0.903332 0.258823 4.569131
v -1.333776 0.305386 4.463320
v -1.333776 0.258823 4.463320
v -1.747338 0.305386 4.318740
v -1.747338 0.258823 4.318740
v -2.141964 0.305386 4.137444
v -2.141964 0.258823 4.137444
v -2.515604 0.305386 3.921483
v -2.515604 0.258824 3.921483
v -2.866206 0.305386 3.672909
v -2.866206 0.258824 3.672909
v -3.191718 0.305386 3.393773
v -3.191718 0.258824 3.393773
v -3.490088 0.305386 3.086128
v -3.490088 0.258824 3.086128
v -3.759264 0.305386 2.752025
v -3.759264 0.258824 2.752025
v -3.997195 0.305386 2.393516
v -3.997195 0.258824 2.393516
v -4.201829 0.305386 2.012653
v -4.201829 0.258824 2.012653
v -4.371114 0.305386 1.611487
v -4.371114 0.258824 1.611487
v -4.502999 0.305386 1.192070
v -4.502999 0.258824 1.192070
v -4.595432 0.305386 0.756453
v -4.595432 0.258824 0.756453
v -4.634122 0.305386 0.458056
v -4.634122 0.258824 0.458056
v -4.656242 0.305387 0.000000
v -4.656242 0.258824 0.000000
v -4.634122 0.305387 -0.458056
v -4.634122 0.258824 -0.458056
v -4.569131 0.305387 -0.903332
v -4.569131 0.258824 -0.903332
v -4.463320 0.305387 -1.333776
v -4.463320 0.258824 -1.333776
v -4.318740 0.305387 -1.747338
v -4.318740 0.258824 -1.747338
v -4.137444 0.305387 -2.141964
v -4.137444 0.258824 -2.141964
v -3.921483 0.305387 -2.515604
v -3.921483 0.258825 -2.515604
v -3.672909 0.305387 -2.866206
v -3.672909 0.258825 -2.866206
v -3.393773 0.305387 -3.191718
v -3.393773 0.258825 -3.191718
v -3.086128 0.305387 -3.490088
v -3.086128 0.258825 -3.490088
v -2.752025 0.305387 -3.759264
v -2.752025 0.258825 -3.759264
v -2.393516 0.305387 -3.997195
v -2.393516 0.258825 -3.997195
v -2.012653 0.305387 -4.201829
v -2.012653 0.258825 -4.201829
v -1.611487 0.305387 -4.371114
v -1.611487 0.258825 -4.371114
v -1.192070 0.305387 -4.502999
v -1.192070 0.258825 -4.502999
v -0.756453 0.305387 -4.595432
v -0.756453 0.258825 -4.595432
v -0.458056 0.305387 -4.634122
v -0.458056 0.258825 -4.634122
v 0.000000 0.305387 -4.656242
v 0.000000 0.258825 -4.656242
v 0.458056 0.305387 -4.634122
v 0.458056 0.258825 -4.634122
v 0.903332 0.305387 -4.569131
v 0.903332 0.258825 -4.569131
v 1.333776 0.305387 -4.463320
v 1.333776 0.258825 -4.463320
v 1.747338 0.305387 -4.318740
v 1.747338 0.258825 -4.318740
v 2.141964 0.305387 -4.137444
v 2.141964 0.258825 -4.137444
v 2.515604 0.305387 -3.921483
v 2.515604 0.258825 -3.921483
v 2.866206 0.305387 -3.672909
v 2.866206 0.258825 -3.672909
v 3.191718 0.305387 -3.393773
v 3.191718 0.258825 -3.393773
v 3.490088 0.305387 -3.086128
v 3.490088 0.258825 -3.086128
v 3.759264 0.305387 -2.752025
v 3.759264 0.258825 -2.752025
v 3.997195 0.305387 -2.393516
v 3.997195 0.258825 -2.393516
v 4.201829 0.305387 -2.012653
v 4.201829 0.258824 -2.012653
v 4.371114 0.305387 -1.611487
v 4.371114 0.258824 -1.611487
v 4.502999 0.305387 -1.192070
v 4.502999 0.258824 -1.192070
v 4.595432 0.305387 -0.756453
v 4.595432 0.258824 -0.756453
v 4.634122 0.305387 -0.458056
v 4.634122 0.258824 -0.458056
vt 0.980369 0.237422
vt 0.561966 0.002375
vt 0.843445 0.076059
vt 0.116680 0.912568
vt 0.000000 0.762578
vt 0.418404 0.997625
vt 1.000000 0.232286
vt 0.995092 0.208011
vt 1.000000 0.208011
vt 1.000000 0.255588
vt 0.995092 0.232286
vt 1.000000 0.277821
vt 0.995092 0.255588
vt 1.000000 0.298891
vt 0.995092 0.277821
vt 1.000000 0.318702
vt 0.995092 0.298891
vt 1.000000 0.337159
vt 0.995092 0.318702
vt 1.000000 0.354165
vt 0.995092 0.337159
vt 0.995092 0.017096
vt 0.990185 0.000000
vt 0.995092 0.000000
vt 0.995092 0.035527
vt 0.990185 0.017096
vt 0.995092 0.055172
vt 0.990185 0.035527
vt 0.995092 0.075905
vt 0.990185 0.055172
vt 0.995092 0.097604
vt 0.990185 0.075905
vt 0.995092 0.120145
vt 0.990185 0.097604
vt 0.995092 0.143406
vt 0.990185 0.120145
vt 0.995092 0.167262
vt 0.990185 0.143406
vt 0.995092 0.183436
vt 0.990185 0.167262
vt 0.995092 0.208011
vt 0.990185 0.183436
vt 0.995092 0.232286
vt 0.990185 0.208011
vt 0.995092 0.255588
vt 0.990185 0.232286
vt 0.995092 0.277821
vt 0.990185 0.255588
vt 0.995092 0.298891
vt 0.990185 0.277821
vt 0.995092 0.318702
vt 0.990185 0.298891
vt 0.995092 0.337159
vt 0.990185 0.318702
vt 0.995092 0.354165
vt 0.990185 0.337159
vt 0.990185 0.017096
vt 0.985277 0.000000
vt 0.990185 0.000000
vt 0.990185 0.035528
vt 0.985277 0.017096
vt 0.990185 0.055172
vt 0.985277 0.035528
vt 0.990185 0.075905
vt 0.985277 0.055172
vt 0.990185 0.097604
vt 0.985277 0.075905
vt 0.990185 0.120145
vt 0.985277 0.097604
vt 0.990185 0.143406
vt 0.985277 0.120145
vt 0.990185 0.167262
vt 0.985277 0.143406
vt 0.990185 0.183436
vt 0.985277 0.167262
vt 0.990185 0.208012
vt 0.985277 0.183436
vt 0.990185 0.232286
vt 0.985277 0.208012
vt 0.990185 0.255588
vt 0.985277 0.232286
vt 0.990185 0.277822
vt 0.985277 0.255588
vt 0.990185 0.298892
vt 0.985277 0.277822
vt 0.990185 0.318702
vt 0.985277 0.298892
vt 0.990185 0.337159
vt 0.985277 0.318702
vt 0.990185 0.354165
vt 0.985277 0.337159
vt 0.985277 0.017096
vt 0.980369 0.000000
vt 0.985277 0.000000
vt 0.985277 0.035528
vt 0.980369 0.017096
vt 0.985277 0.055172
vt 0.980369 0.035528
vt 0.985277 0.075905
vt 0.980369 0.055172
vt 0.985277 0.097604
vt 0.980369 0.075905
vt 0.985277 0.120145
vt 0.980369 0.097604
vt 0.985277 0.143406
vt 0.980369 0.120145
vt 0.985277 0.167262
vt 0.980369 0.143406
vt 0.985277 0.183436
vt 0.980369 0.167262
vt 0.985277 0.208012
vt 0.980369 0.183436
vt 0.985277 0.232286
vt 0.980369 0.208012
vt 0.985277 0.255588
vt 0.980369 0.232286
vt 0.985277 0.277822
vt 0.980369 0.255588
vt 0.985277 0.298892
vt 0.980370 0.277822
vt 0.985277 0.318702
vt 0.980370 0.298892
vt 0.985277 0.337159
vt 0.980370 0.318702
vt 0.985277 0.354165
vt 0.980370 0.337159
vt 1.000000 0.017096
vt 0.995092 0.000000
vt 1.000000 0.000000
vt 1.000000 0.035527
vt 0.995092 0.017096
vt 1.000000 0.055172
vt 0.995092 0.035527
vt 1.000000 0.075905
vt 0.995092 0.055172
vt 1.000000 0.097604
vt 0.995092 0.075905
vt 1.000000 0.120145
vt 0.995092 0.097604
vt 1.000000 0.143406
vt 0.995092 0.120145
vt 1.000000 0.167262
vt 0.995092 0.143406
vt 1.000000 0.183436
vt 0.995092 0.167262
vt 0.995092 0.183436
vt 0.466513 0.500000
vt 0.418404 0.497625
vt 0.000000 0.262578
vt 0.371858 0.492981
vt 0.205419 0.454027
vt 0.136924 0.423941
vt 0.169773 0.439772
vt 0.327081 0.486183
vt 0.243656 0.466591
vt 0.284278 0.477349
vt 0.107077 0.406649
vt 0.080438 0.388013
vt 0.057213 0.368147
vt 0.002556 0.278700
vt 0.037606 0.347167
vt 0.010072 0.302328
vt 0.021824 0.325189
vt 0.000000 0.237927
vt 0.004657 0.213391
vt 0.465522 0.000000
vt 0.149132 0.069833
vt 0.013763 0.189652
vt 0.090141 0.104766
vt 0.027091 0.166815
vt 0.065506 0.124267
vt 0.118092 0.086586
vt 0.044414 0.144985
vt 0.183036 0.054611
vt 0.219578 0.041024
vt 0.258529 0.029179
vt 0.433912 0.001304
vt 0.299665 0.019180
vt 0.387583 0.005137
vt 0.342758 0.011131
vt 0.513856 0.000000
vt 0.608512 0.007019
vt 0.774951 0.045973
vt 0.653289 0.013817
vt 0.736714 0.033409
vt 0.696091 0.022652
vt 0.810596 0.060228
vt 0.873292 0.093351
vt 0.899931 0.111987
vt 0.923157 0.131853
vt 0.977813 0.221300
vt 0.942763 0.152833
vt 0.970297 0.197672
vt 0.958545 0.174811
vt 0.980369 0.262073
vt 0.975712 0.286609
vt 0.966606 0.310348
vt 0.890229 0.395234
vt 0.953279 0.333185
vt 0.914863 0.375733
vt 0.935956 0.355015
vt 0.862278 0.413414
vt 0.831237 0.430167
vt 0.797333 0.445389
vt 0.514847 0.500000
vt 0.760792 0.458976
vt 0.721840 0.470821
vt 0.546457 0.498696
vt 0.680705 0.480820
vt 0.592787 0.494863
vt 0.637611 0.488869
vt 0.513856 0.500000
vt 0.561966 0.502375
vt 0.980369 0.737422
vt 0.593183 0.505226
vt 0.799015 0.555296
vt 0.832819 0.570614
vt 0.638572 0.511319
vt 0.762483 0.541591
vt 0.682056 0.519487
vt 0.723428 0.529617
vt 0.863689 0.587432
vt 0.891421 0.605633
vt 0.915807 0.625102
vt 0.936642 0.645723
vt 0.975791 0.713346
vt 0.953722 0.667381
vt 0.966840 0.689960
vt 0.980369 0.762073
vt 0.975712 0.786609
vt 0.514847 1.000000
vt 0.808938 0.940492
vt 0.970122 0.802530
vt 0.871949 0.907507
vt 0.958176 0.825679
vt 0.898820 0.888875
vt 0.942160 0.847856
vt 0.922299 0.868957
vt 0.841913 0.924748
vt 0.773251 0.954635
vt 0.735078 0.967072
vt 0.562054 0.997665
vt 0.694645 0.977699
vt 0.652179 0.986410
vt 0.607907 0.993100
vt 0.466513 1.000000
vt 0.000000 0.737927
vt 0.387187 0.994774
vt 0.181354 0.944704
vt 0.341797 0.988681
vt 0.217887 0.958409
vt 0.298314 0.980513
vt 0.256942 0.970383
vt 0.147550 0.929386
vt 0.088949 0.894367
vt 0.064563 0.874898
vt 0.043727 0.854277
vt 0.004578 0.786654
vt 0.013529 0.810040
vt 0.026647 0.832619
vt 0.004657 0.713391
vt 0.465522 0.500000
vt 0.010248 0.697470
vt 0.108420 0.592493
vt 0.022193 0.674321
vt 0.081549 0.611125
vt 0.058070 0.631043
vt 0.038209 0.652144
vt 0.138456 0.575252
vt 0.171431 0.559508
vt 0.207118 0.545365
vt 0.245291 0.532928
vt 0.418315 0.502335
vt 0.285724 0.522301
vt 0.328190 0.513590
vt 0.372463 0.506900
vt 0.995092 0.354165
vt 0.990185 0.354165
vt 0.985277 0.354165
vt 0.980370 0.354165
vn 0.0000 -1.0000 -0.0000
vn 0.0000 1.0000 0.0000
vn 0.9988 -0.0000 0.0482
vn 0.9895 0.0000 0.1444
vn 0.9711 0.0000 0.2387
vn 0.9440 0.0000 0.3300
vn 0.9087 0.0000 0.4175
vn 0.8658 0.0000 0.5004
vn 0.8158 0.0000 0.5784
vn 0.7591 0.0000 0.6510
vn 0.6962 0.0000 0.7178
vn 0.6274 0.0000 0.7787
vn 0.5530 0.0000 0.8332
vn 0.4733 0.0000 0.8809
vn 0.3888 0.0000 0.9213
vn 0.3000 0.0000 0.9539
vn 0.2076 0.0000 0.9782
vn 0.1286 0.0000 0.9917
vn 0.0482 0.0000 0.9988
vn -0.0482 0.0000 0.9988
vn -0.1444 0.0000 0.9895
vn -0.2387 0.0000 0.9711
vn -0.3300 0.0000 0.9440
vn -0.4175 0.0000 0.9087
vn -0.5004 0.0000 0.8658
vn -0.5784 0.0000 0.8158
vn -0.6510 0.0000 0.7591
vn -0.7178 0.0000 0.6962
vn -0.7787 0.0000 0.6274
vn -0.8332 0.0000 0.5530
vn -0.8809 0.0000 0.4733
vn -0.9213 0.0000 0.3888
vn -0.9539 0.0000 0.3000
vn -0.9782 0.0000 0.2076
vn -0.9917 0.0000 0.1286
vn -0.9988 0.0000 0.0482
vn -0.9988 0.0000 -0.0482
vn -0.9895 0.0000 -0.1444
vn -0.9711 0.0000 -0.2387
vn -0.9440 0.0000 -0.3300
vn -0.9087 0.0000 -0.4175
vn -0.8658 0.0000 -0.5004
vn -0.8158 0.0000 -0.5784
vn -0.7591 0.0000 -0.6510
vn -0.6962 0.0000 -0.7178
vn -0.6274 0.0000 -0.7787
vn -0.5530 0.0000 -0.8332
vn -0.4733 0.0000 -0.8809
vn -0.3888 0.0000 -0.9213
vn -0.3000 0.0000 -0.9539
vn -0.2076 0.0000 -0.9782
vn -0.1286 0.0000 -0.9917
vn -0.0482 0.0000 -0.9988
vn 0.0482 0.0000 -0.9988
vn 0.1444 0.0000 -0.9895
vn 0.2387 0.0000 -0.9711
vn 0.3300 0.0000 -0.9440
vn 0.4175 0.0000 -0.9087
vn 0.5004 0.0000 -0.8658
vn 0.5784 0.0000 -0.8158
vn 0.6510 0.0000 -0.7591
vn 0.7178 0.0000 -0.6962
vn 0.7787 0.0000 -0.6274
vn 0.8332 0.0000 -0.5530
vn 0.8809 0.0000 -0.4733
vn 0.9213 0.0000 -0.3888
vn 0.9539 0.0000 -0.3000
vn 0.9782 0.0000 -0.2076
vn 0.9917 0.0000 -0.1286
vn 0.9988 0.0000 -0.0482
usemtl Mat.001
s off
f 50/1/1 35/2/1 42/3/1
f 111/4/2 118/5/2 103/6/2
f 138/7/3 140/8/3 137/9/3
f 141/10/4 139/11/4 138/7/4
f 143/12/5 142/13/5 141/10/5
f 145/14/6 144/15/6 143/12/6
f 147/16/7 146/17/7 145/14/7
f 149/18/8 148/19/8 147/16/8
f 151/20/9 150/21/9 149/18/9
f 153/22/10 152/23/10 151/24/10
f 155/25/11 154/26/11 153/22/11
f 157/27/12 156/28/12 155/25/12
f 159/29/13 158/30/13 157/27/13
f 161/31/14 160/32/14 159/29/14
f 163/33/15 162/34/15 161/31/15
f 165/35/16 164/36/16 163/33/16
f 167/37/17 166/38/17 165/35/17
f 169/39/18 168/40/18 167/37/18
f 171/41/19 170/42/19 169/39/19
f 173/43/20 172/44/20 171/41/20
f 175/45/21 174/46/21 173/43/21
f 177/47/22 176/48/22 175/45/22
f 179/49/23 178/50/23 177/47/23
f 181/51/24 180/52/24 179/49/24
f 183/53/25 182/54/25 181/51/25
f 185/55/26 184/56/26 183/53/26
f 187/57/27 186/58/27 185/59/27
f 189/60/28 188/61/28 187/57/28
f 191/62/29 190/63/29 189/60/29
f 193/64/30 192/65/30 191/62/30
f 195/66/31 194/67/31 193/64/31
f 197/68/32 196/69/32 195/66/32
f 199/70/33 198/71/33 197/68/33
f 201/72/34 200/73/34 199/70/34
f 203/74/35 202/75/35 201/72/35
f 205/76/36 204/77/36 203/74/36
f 207/78/37 206/79/37 205/76/37
f 209/80/38 208/81/38 207/78/38
f 211/82/39 210/83/39 209/80/39
f 213/84/40 212/85/40 211/82/40
f 215/86/41 214/87/41 213/84/41
f 217/88/42 216/89/42 215/86/42
f 219/90/43 218/91/43 217/88/43
f 221/92/44 220/93/44 219/94/44
f 223/95/45 222/96/45 221/92/45
f 225/97/46 224/98/46 223/95/46
f 227/99/47 226/100/47 225/97/47
f 229/101/48 228/102/48 227/99/48
f 231/103/49 230/104/49 229/101/49
f 233/105/50 232/106/50 231/103/50
f 235/107/51 234/108/51 233/105/51
f 237/109/52 236/110/52 235/107/52
f 239/111/53 238/112/53 237/109/53
f 241/113/54 240/114/54 239/111/54
f 243/115/55 242/116/55 241/113/55
f 245/117/56 244/118/56 243/115/56
f 247/119/57 246/120/57 245/117/57
f 249/121/58 248/122/58 247/119/58
f 251/123/59 250/124/59 249/121/59
f 253/125/60 252/126/60 251/123/60
f 255/127/61 254/128/61 253/129/61
f 257/130/62 256/131/62 255/127/62
f 259/132/63 258/133/63 257/130/63
f 261/134/64 260/135/64 259/132/64
f 263/136/65 262/137/65 261/134/65
f 265/138/66 264/139/66 263/136/66
f 267/140/67 266/141/67 265/138/67
f 269/142/68 268/143/68 267/140/68
f 271/144/69 270/145/69 269/142/69
f 137/9/70 272/146/70 271/144/70
f 68/147/1 1/148/1 16/149/1
f 1/148/1 2/150/1 6/151/1
f 8/152/1 1/148/1 7/153/1
f 2/150/1 3/154/1 5/155/1
f 3/154/1 4/156/1 5/155/1
f 5/155/1 6/151/1 2/150/1
f 6/151/1 7/153/1 1/148/1
f 8/152/1 9/157/1 16/149/1
f 9/157/1 10/158/1 16/149/1
f 10/158/1 11/159/1 15/160/1
f 11/159/1 12/161/1 14/162/1
f 10/158/1 15/160/1 16/149/1
f 12/161/1 13/163/1 14/162/1
f 14/162/1 15/160/1 11/159/1
f 16/149/1 17/164/1 68/147/1
f 17/164/1 18/165/1 33/166/1
f 33/166/1 18/165/1 25/167/1
f 18/165/1 19/168/1 23/169/1
f 19/168/1 20/170/1 22/171/1
f 18/165/1 23/169/1 24/172/1
f 20/170/1 21/173/1 22/171/1
f 22/171/1 23/169/1 19/168/1
f 24/172/1 25/167/1 18/165/1
f 25/167/1 26/174/1 33/166/1
f 26/174/1 27/175/1 33/166/1
f 27/175/1 28/176/1 32/177/1
f 28/176/1 29/178/1 31/179/1
f 29/178/1 30/180/1 31/179/1
f 31/179/1 32/177/1 28/176/1
f 32/177/1 33/166/1 27/175/1
f 33/166/1 34/181/1 17/164/1
f 17/164/1 34/181/1 68/147/1
f 34/181/1 35/2/1 50/1/1
f 35/2/1 36/182/1 40/183/1
f 36/182/1 37/184/1 39/185/1
f 37/184/1 38/186/1 39/185/1
f 39/185/1 40/183/1 36/182/1
f 40/183/1 41/187/1 35/2/1
f 41/187/1 42/3/1 35/2/1
f 42/3/1 43/188/1 50/1/1
f 43/188/1 44/189/1 50/1/1
f 44/189/1 45/190/1 49/191/1
f 45/190/1 46/192/1 48/193/1
f 46/192/1 47/194/1 48/193/1
f 48/193/1 49/191/1 45/190/1
f 49/191/1 50/1/1 44/189/1
f 50/1/1 51/195/1 34/181/1
f 51/195/1 52/196/1 68/147/1
f 34/181/1 51/195/1 68/147/1
f 52/196/1 53/197/1 57/198/1
f 53/197/1 54/199/1 56/200/1
f 54/199/1 55/201/1 56/200/1
f 56/200/1 57/198/1 53/197/1
f 57/198/1 58/202/1 52/196/1
f 58/202/1 59/203/1 52/196/1
f 59/203/1 60/204/1 67/205/1
f 52/196/1 59/203/1 67/205/1
f 60/204/1 61/206/1 67/205/1
f 61/206/1 62/207/1 66/208/1
f 62/207/1 63/209/1 65/210/1
f 63/209/1 64/211/1 65/210/1
f 65/210/1 66/208/1 62/207/1
f 66/208/1 67/205/1 61/206/1
f 67/205/1 68/147/1 52/196/1
f 1/148/1 8/152/1 16/149/1
f 136/212/2 69/213/2 84/214/2
f 69/213/2 70/215/2 75/216/2
f 76/217/2 69/213/2 75/216/2
f 70/215/2 71/218/2 74/219/2
f 71/218/2 72/220/2 73/221/2
f 74/219/2 71/218/2 73/221/2
f 74/219/2 75/216/2 70/215/2
f 76/217/2 77/222/2 69/213/2
f 77/222/2 78/223/2 84/214/2
f 78/223/2 79/224/2 84/214/2
f 79/224/2 80/225/2 83/226/2
f 84/214/2 79/224/2 83/226/2
f 80/225/2 81/227/2 82/228/2
f 82/228/2 83/226/2 80/225/2
f 84/214/2 85/229/2 136/212/2
f 85/229/2 86/230/2 101/231/2
f 101/231/2 86/230/2 94/232/2
f 86/230/2 87/233/2 92/234/2
f 87/233/2 88/235/2 91/236/2
f 92/234/2 87/233/2 91/236/2
f 88/235/2 89/237/2 90/238/2
f 90/238/2 91/236/2 88/235/2
f 92/234/2 93/239/2 86/230/2
f 93/239/2 94/232/2 86/230/2
f 94/232/2 95/240/2 101/231/2
f 95/240/2 96/241/2 101/231/2
f 101/231/2 96/241/2 100/242/2
f 96/241/2 97/243/2 100/242/2
f 97/243/2 98/244/2 99/245/2
f 100/242/2 97/243/2 99/245/2
f 101/231/2 102/246/2 85/229/2
f 85/229/2 102/246/2 136/212/2
f 102/246/2 103/6/2 119/247/2
f 103/6/2 104/248/2 109/249/2
f 102/246/2 119/247/2 136/212/2
f 104/248/2 105/250/2 108/251/2
f 105/250/2 106/252/2 107/253/2
f 108/251/2 105/250/2 107/253/2
f 108/251/2 109/249/2 104/248/2
f 109/249/2 110/254/2 103/6/2
f 110/254/2 111/4/2 103/6/2
f 111/4/2 112/255/2 118/5/2
f 112/255/2 113/256/2 118/5/2
f 113/256/2 114/257/2 117/258/2
f 117/258/2 114/257/2 116/259/2
f 114/257/2 115/260/2 116/259/2
f 117/258/2 118/5/2 113/256/2
f 118/5/2 119/247/2 103/6/2
f 119/247/2 120/261/2 135/262/2
f 120/261/2 121/263/2 126/264/2
f 121/263/2 122/265/2 125/266/2
f 125/266/2 122/265/2 124/267/2
f 122/265/2 123/268/2 124/267/2
f 125/266/2 126/264/2 121/263/2
f 126/264/2 127/269/2 120/261/2
f 127/269/2 128/270/2 120/261/2
f 128/270/2 129/271/2 135/262/2
f 129/271/2 130/272/2 135/262/2
f 135/262/2 130/272/2 134/273/2
f 130/272/2 131/274/2 134/273/2
f 131/274/2 132/275/2 133/276/2
f 134/273/2 131/274/2 133/276/2
f 135/262/2 136/212/2 119/247/2
f 128/270/2 135/262/2 120/261/2
f 77/222/2 84/214/2 69/213/2
f 138/7/3 139/11/3 140/8/3
f 141/10/4 142/13/4 139/11/4
f 143/12/5 144/15/5 142/13/5
f 145/14/6 146/17/6 144/15/6
f 147/16/7 148/19/7 146/17/7
f 149/18/8 150/21/8 148/19/8
f 151/20/9 152/277/9 150/21/9
f 153/22/10 154/26/10 152/23/10
f 155/25/11 156/28/11 154/26/11
f 157/27/12 158/30/12 156/28/12
f 159/29/13 160/32/13 158/30/13
f 161/31/14 162/34/14 160/32/14
f 163/33/15 164/36/15 162/34/15
f 165/35/16 166/38/16 164/36/16
f 167/37/17 168/40/17 166/38/17
f 169/39/18 170/42/18 168/40/18
f 171/41/19 172/44/19 170/42/19
f 173/43/20 174/46/20 172/44/20
f 175/45/21 176/48/21 174/46/21
f 177/47/22 178/50/22 176/48/22
f 179/49/23 180/52/23 178/50/23
f 181/51/24 182/54/24 180/52/24
f 183/53/25 184/56/25 182/54/25
f 185/55/26 186/278/26 184/56/26
f 187/57/27 188/61/27 186/58/27
f 189/60/28 190/63/28 188/61/28
f 191/62/29 192/65/29 190/63/29
f 193/64/30 194/67/30 192/65/30
f 195/66/31 196/69/31 194/67/31
f 197/68/32 198/71/32 196/69/32
f 199/70/33 200/73/33 198/71/33
f 201/72/34 202/75/34 200/73/34
f 203/74/35 204/77/35 202/75/35
f 205/76/36 206/79/36 204/77/36
f 207/78/37 208/81/37 206/79/37
f 209/80/38 210/83/38 208/81/38
f 211/82/39 212/85/39 210/83/39
f 213/84/40 214/87/40 212/85/40
f 215/86/41 216/89/41 214/87/41
f 217/88/42 218/91/42 216/89/42
f 219/90/43 220/279/43 218/91/43
f 221/92/44 222/96/44 220/93/44
f 223/95/45 224/98/45 222/96/45
f 225/97/46 226/100/46 224/98/46
f 227/99/47 228/102/47 226/100/47
f 229/101/48 230/104/48 228/102/48
f 231/103/49 232/106/49 230/104/49
f 233/105/50 234/108/50 232/106/50
f 235/107/51 236/110/51 234/108/51
f 237/109/52 238/112/52 236/110/52
f 239/111/53 240/114/53 238/112/53
f 241/113/54 242/116/54 240/114/54
f 243/115/55 244/118/55 242/116/55
f 245/117/56 246/120/56 244/118/56
f 247/119/57 248/122/57 246/120/57
f 249/121/58 250/124/58 248/122/58
f 251/123/59 252/126/59 250/124/59
f 253/125/60 254/280/60 252/126/60
f 255/127/61 256/131/61 254/128/61
f 257/130/62 258/133/62 256/131/62
f 259/132/63 260/135/63 258/133/63
f 261/134/64 262/137/64 260/135/64
f 263/136/65 264/139/65 262/137/65
f 265/138/66 266/141/66 264/139/66
f 267/140/67 268/143/67 266/141/67
f 269/142/68 270/145/68 268/143/68
f 271/144/69 272/146/69 270/145/69
f 137/9/70 140/8/70 272/146/70
